<?xml version="1.0" standalone="no"?>
<!DOCTYPE svg PUBLIC "-//W3C//DTD SVG 20010904//EN"
 "http://www.w3.org/TR/2001/REC-SVG-20010904/DTD/svg10.dtd">
<svg version="1.0" xmlns="http://www.w3.org/2000/svg"
 width="1044.000000pt" height="266.000000pt" viewBox="0 0 1044.000000 266.000000"
 preserveAspectRatio="xMidYMid meet">

<g transform="translate(0.000000,266.000000) scale(0.100000,-0.100000)"
fill="#FFFFFF" stroke="none">
<path d="M160 2175 l0 -305 215 0 215 0 0 -855 0 -855 380 0 380 0 0 855 0
855 215 0 215 0 0 305 0 305 -810 0 -810 0 0 -305z m1360 -15 l0 -40 -250 0
-250 0 0 -840 0 -840 -50 0 -50 0 0 840 0 840 -245 0 -245 0 0 40 0 40 545 0
545 0 0 -40z"/>
<path d="M1900 1321 l0 -1161 370 0 370 0 2 292 3 293 171 -290 172 -290 431
-3 c237 -1 431 1 431 5 0 5 -96 176 -213 381 l-212 374 86 86 c75 76 93 101
137 192 77 160 103 312 82 486 -21 175 -77 319 -170 435 -132 167 -317 274
-566 330 -93 21 -128 22 -596 26 l-498 4 0 -1160z m1005 850 c252 -70 419
-228 470 -446 30 -125 12 -304 -42 -415 -41 -86 -162 -199 -262 -247 -44 -21
-81 -42 -81 -47 0 -6 74 -134 165 -287 91 -152 165 -279 165 -283 0 -3 -24 -6
-52 -6 l-53 0 -163 276 -164 276 -31 -7 c-18 -4 -141 -9 -274 -12 l-243 -5 0
-264 0 -264 -45 0 -45 0 0 881 0 881 288 -4 c258 -4 295 -7 367 -27z"/>
<path d="M2340 1587 l0 -537 143 0 c375 0 559 51 691 193 154 163 166 468 26
651 -75 99 -194 168 -350 202 -39 9 -156 17 -287 21 l-223 6 0 -536z m403 263
c172 -25 257 -111 257 -259 0 -41 -27 -125 -50 -154 -37 -47 -138 -88 -229
-94 l-81 -6 0 262 c0 242 1 261 18 261 9 0 48 -5 85 -10z"/>
<path d="M3930 1320 l0 -1160 390 0 390 0 0 1160 0 1160 -390 0 -390 0 0
-1160z m430 0 l0 -880 -45 0 -45 0 0 880 0 880 45 0 45 0 0 -880z"/>
<path d="M4976 1933 c117 -302 321 -822 451 -1158 l238 -610 300 -3 301 -2
451 1157 451 1158 -401 3 c-220 1 -402 1 -403 -1 -2 -2 -91 -226 -198 -498
-107 -272 -198 -494 -201 -494 -4 0 -94 223 -200 495 l-193 495 -405 3 -405 2
214 -547z m631 -413 c145 -371 284 -728 309 -794 30 -76 49 -114 54 -105 4 8
139 349 299 757 161 409 299 761 308 783 15 38 16 39 65 39 44 0 49 -2 43 -17
-3 -10 -158 -406 -343 -881 l-337 -863 -40 3 -40 3 -332 850 c-183 468 -337
863 -342 878 l-10 28 51 -3 51 -3 264 -675z"/>
<path d="M7220 1320 l0 -1160 390 0 390 0 0 1160 0 1160 -390 0 -390 0 0
-1160z m440 0 l0 -880 -45 0 -45 0 0 880 0 880 45 0 45 0 0 -880z"/>
<path d="M8936 2472 c-5 -9 -876 -2303 -876 -2309 0 -1 163 -3 363 -3 l362 0
39 105 38 105 353 0 352 0 39 -105 38 -105 363 0 c200 0 363 1 363 3 0 1 -197
522 -438 1157 l-439 1155 -276 3 c-151 1 -278 -1 -281 -6z m678 -1140 c181
-477 331 -873 334 -879 3 -9 -10 -13 -46 -13 l-49 0 -32 85 -33 85 -573 0
-574 0 -32 -85 -32 -85 -50 0 c-35 0 -48 4 -45 13 2 6 153 402 334 879 l329
868 70 0 70 0 329 -868z"/>
<path d="M9202 2083 c-5 -15 -123 -325 -262 -688 -139 -363 -255 -668 -257
-677 -5 -17 25 -18 531 -18 295 0 536 2 536 5 0 7 -531 1399 -535 1403 -1 2
-7 -10 -13 -25z m97 -1012 c39 -101 71 -185 71 -187 0 -2 -70 -4 -155 -4 -85
0 -155 2 -155 5 0 4 32 88 142 375 12 33 11 35 97 -189z"/>
</g>
</svg>
